<?xml version="1.0" encoding="utf-8"?>
<!-- Generator: Adobe Illustrator 19.0.0, SVG Export Plug-In . SVG Version: 6.00 Build 0)  -->
<svg version="1.1" xmlns="http://www.w3.org/2000/svg" xmlns:xlink="http://www.w3.org/1999/xlink" x="0px" y="0px"
	 viewBox="0 0 834 680" style="enable-background:new 0 0 834 680;" xml:space="preserve">
<style type="text/css">
	.st0{fill:#0D5768;}
	.st1{fill:#39A2BE;}
</style>
<g id="Capa_1">
</g>
<g id="Capa_2">
	<g id="XMLID_88_">
		<g id="XMLID_250_">
			<path id="XMLID_260_" class="st0" d="M1408.9,307v-1.7c0-9.3-7.6-16.9-16.9-16.9h-53l-6.9-11.2c-0.6-1-1.6-1.5-2.7-1.5h-40
				c-1.8,0-3.2,1.4-3.2,3.2v25c0,0.5-0.1,1-0.1,1.4v1.7v58.2v1.7c0,9.3,7.6,16.9,16.9,16.9h34.4h20.1h34.4c9.3,0,16.9-7.6,16.9-16.9
				v-1.7 M1402.5,366.9c0,5.8-4.7,10.5-10.5,10.5h-89c-5.8,0-10.5-4.7-10.5-10.5v-47.6c0-0.2,0.1-0.4,0.1-0.7v-36.6h35l7,11.4
				c0.8,1.3,2.3,1.8,3.7,1.4h53.8c5.8,0,10.5,4.7,10.5,10.5V366.9z M1408.9,356.7v-41.1"/>
			<path id="XMLID_257_" class="st0" d="M1392,302.1h-89c-1.8,0-3.2,1.4-3.2,3.2v61.6c0,1.8,1.4,3.2,3.2,3.2h89
				c1.8,0,3.2-1.4,3.2-3.2v-61.6C1395.2,303.6,1393.8,302.1,1392,302.1z M1388.8,363.7h-82.5v-55.2l82.5,0V363.7z"/>
			<path id="XMLID_254_" class="st0" d="M1330.4,356.4c5.5,0,10.1-4.5,10.1-10.1v-20.5c0-5.5-4.5-10.1-10.1-10.1
				c-5.5,0-10.1,4.5-10.1,10.1v20.5C1320.4,351.9,1324.9,356.4,1330.4,356.4z M1326.8,325.9c0-2,1.6-3.6,3.6-3.6
				c2,0,3.6,1.6,3.6,3.6v20.5c0,2-1.6,3.6-3.6,3.6c-2,0-3.6-1.6-3.6-3.6V325.9z"/>
			<path id="XMLID_251_" class="st0" d="M1364.6,356.4c5.5,0,10.1-4.5,10.1-10.1v-20.5c0-5.5-4.5-10.1-10.1-10.1
				s-10.1,4.5-10.1,10.1v20.5C1354.6,351.9,1359.1,356.4,1364.6,356.4z M1361,325.9c0-2,1.6-3.6,3.6-3.6c2,0,3.6,1.6,3.6,3.6v20.5
				c0,2-1.6,3.6-3.6,3.6c-2,0-3.6-1.6-3.6-3.6V325.9z"/>
		</g>
	</g>
	<g id="XMLID_150_">
		<g id="XMLID_203_">
			<path id="XMLID_214_" class="st0" d="M184.1,981.5v-1.7c0-9.6-7.8-17.4-17.4-17.4h-54.6l-7.1-11.6c-0.6-1-1.7-1.6-2.8-1.6H61.1
				c-1.8,0-3.3,1.5-3.3,3.3v25.8c0,0.5-0.1,1-0.1,1.5v1.7v59.9v1.7c0,9.6,7.8,17.4,17.4,17.4h35.4h20.7h35.4
				c9.6,0,17.4-7.8,17.4-17.4v-1.7 M177.5,1043.2c0,5.9-4.8,10.8-10.8,10.8H75.2c-6,0-10.8-4.8-10.8-10.8v-49c0-0.2,0.1-0.4,0.1-0.7
				v-37.7h36l7.2,11.7c0.8,1.3,2.4,1.9,3.8,1.4h55.3c6,0,10.8,4.8,10.8,10.8V1043.2z M184.1,1032.6v-42.3"/>
			<path id="XMLID_211_" class="st0" d="M166.8,976.4H75.2c-1.8,0-3.3,1.5-3.3,3.3v63.4c0,1.8,1.5,3.3,3.3,3.3h91.6
				c1.8,0,3.3-1.5,3.3-3.3v-63.4C170.1,977.9,168.6,976.4,166.8,976.4z M163.4,1039.9h-85v-56.8h85V1039.9z"/>
			<path id="XMLID_208_" class="st0" d="M103.3,1032.4c5.7,0,10.3-4.6,10.3-10.3v-21.1c0-5.7-4.6-10.3-10.3-10.3S93,995.2,93,1000.9
				v21.1C93,1027.7,97.6,1032.4,103.3,1032.4z M99.6,1000.9c0-2.1,1.7-3.7,3.7-3.7s3.7,1.7,3.7,3.7v21.1c0,2.1-1.7,3.7-3.7,3.7
				s-3.7-1.7-3.7-3.7V1000.9z"/>
			<path id="XMLID_204_" class="st0" d="M138.6,1032.4c5.7,0,10.3-4.6,10.3-10.3v-21.1c0-5.7-4.6-10.3-10.3-10.3
				c-5.7,0-10.3,4.6-10.3,10.3v21.1C128.2,1027.7,132.9,1032.4,138.6,1032.4z M134.8,1000.9c0-2.1,1.7-3.7,3.7-3.7s3.7,1.7,3.7,3.7
				v21.1c0,2.1-1.7,3.7-3.7,3.7s-3.7-1.7-3.7-3.7V1000.9z"/>
		</g>
	</g>
	<g id="XMLID_25_">
		<g id="XMLID_268_">
			<path id="XMLID_278_" class="st0" d="M1424.2,459.7c-4.2,0-7.7,2.7-9,6.4h-4.2c-0.8-10.2-5.5-19.3-12.8-24.4v-1.6
				c0-8.8-7.1-15.9-15.9-15.9h-49.9l-6.5-10.6c-0.5-0.9-1.5-1.4-2.6-1.4h-37.6c-1.7,0-3,1.4-3,3v23.6c0,0.4-0.1,0.9-0.1,1.4v1.6
				c-7.3,5.1-12,14.1-12.8,24.4h-4.2c-1.3-3.7-4.8-6.4-9-6.4c-5.2,0-9.5,4.2-9.5,9.5c0,5.2,4.2,9.5,9.5,9.5c4.2,0,7.7-2.7,9-6.4h4.2
				c0.8,10.2,5.5,19.3,12.8,24.4v1.6c0,8.8,7.1,15.9,15.9,15.9h32.4h18.9h32.4c8.8,0,15.9-7.1,15.9-15.9v-1.6
				c7.3-5.1,12-14.1,12.8-24.4h4.2c1.3,3.7,4.8,6.4,9,6.4c5.2,0,9.5-4.2,9.5-9.5C1433.7,464,1429.4,459.7,1424.2,459.7z
				 M1256.7,472.6c-1.9,0-3.4-1.5-3.4-3.4s1.5-3.4,3.4-3.4c1.9,0,3.4,1.5,3.4,3.4S1258.6,472.6,1256.7,472.6z M1282.7,488.5
				c-4.3-4.8-6.8-11.8-6.8-19.3c0-7.5,2.6-14.5,6.8-19.3V488.5z M1392.2,498.2c0,5.4-4.4,9.9-9.9,9.9h-83.8c-5.4,0-9.9-4.4-9.9-9.9
				v-44.8c0-0.2,0.1-0.4,0.1-0.6v-34.5h32.9l6.6,10.7c0.7,1.2,2.2,1.7,3.5,1.3h50.6c5.4,0,9.9,4.4,9.9,9.9V498.2z M1398.3,488.5
				v-38.7c4.3,4.8,6.8,11.8,6.8,19.3C1405.1,476.7,1402.5,483.7,1398.3,488.5z M1424.2,472.6c-1.9,0-3.4-1.5-3.4-3.4
				s1.5-3.4,3.4-3.4c1.9,0,3.4,1.5,3.4,3.4S1426.1,472.6,1424.2,472.6z"/>
			<path id="XMLID_275_" class="st0" d="M1382.3,437.2h-83.8c-1.7,0-3,1.4-3,3v58c0,1.7,1.4,3,3,3h83.8c1.7,0,3-1.4,3-3v-58
				C1385.4,438.5,1384,437.2,1382.3,437.2z M1379.3,495.2h-77.7v-51.9h77.7V495.2z"/>
			<path id="XMLID_272_" class="st0" d="M1324.4,488.3c5.2,0,9.5-4.2,9.5-9.5v-19.3c0-5.2-4.2-9.5-9.5-9.5s-9.5,4.2-9.5,9.5v19.3
				C1314.9,484.1,1319.1,488.3,1324.4,488.3z M1320.9,459.5c0-1.9,1.5-3.4,3.4-3.4s3.4,1.5,3.4,3.4v19.3c0,1.9-1.5,3.4-3.4,3.4
				s-3.4-1.5-3.4-3.4V459.5z"/>
			<path id="XMLID_269_" class="st0" d="M1356.6,488.3c5.2,0,9.5-4.2,9.5-9.5v-19.3c0-5.2-4.2-9.5-9.5-9.5c-5.2,0-9.5,4.2-9.5,9.5
				v19.3C1347.1,484.1,1351.4,488.3,1356.6,488.3z M1353.2,459.5c0-1.9,1.5-3.4,3.4-3.4c1.9,0,3.4,1.5,3.4,3.4v19.3
				c0,1.9-1.5,3.4-3.4,3.4c-1.9,0-3.4-1.5-3.4-3.4V459.5z"/>
		</g>
	</g>
	<g id="XMLID_66_">
		<g id="XMLID_72_">
			<path id="XMLID_237_" class="st0" d="M676.8,234V231c0-16.9-13.7-30.6-30.6-30.6h-96L537.6,180c-1.1-1.7-2.9-2.8-5-2.8h-72.5
				c-3.2,0-5.8,2.6-5.8,5.8l0,45.4c-0.1,0.9-0.1,1.7-0.1,2.6v3.1v105.5v3.1c0,16.9,13.7,30.6,30.6,30.6h62.4h36.4h62.4
				c16.9,0,30.6-13.7,30.6-30.6v-3.1 M665.2,342.6c0,10.5-8.5,19-19,19H484.9c-10.5,0-19-8.5-19-19v-86.3c0.1-0.4,0.1-0.8,0.1-1.2
				v-66.3h63.4l12.6,20.6c1.4,2.3,4.2,3.3,6.7,2.5h97.4c10.5,0,19,8.5,19,19V342.6z M676.8,324v-74.5"/>
			<path id="XMLID_218_" class="st0" d="M646.2,225.2H484.9c-3.2,0-5.8,2.6-5.8,5.8v111.6c0,3.2,2.6,5.8,5.8,5.8h161.3
				c3.2,0,5.8-2.6,5.8-5.8V231C652,227.8,649.4,225.2,646.2,225.2z M640.3,336.8H490.7v-100h149.6V336.8z"/>
			<path id="XMLID_200_" class="st0" d="M534.5,323.6c10,0,18.2-8.2,18.2-18.2v-37.2c0-10-8.2-18.2-18.2-18.2
				c-10,0-18.2,8.2-18.2,18.2v37.2C516.3,315.5,524.5,323.6,534.5,323.6z M527.9,268.2c0-3.6,3-6.6,6.6-6.6s6.6,3,6.6,6.6v37.2
				c0,3.6-3,6.6-6.6,6.6s-6.6-3-6.6-6.6V268.2z"/>
			<path id="XMLID_197_" class="st0" d="M596.5,323.6c10,0,18.2-8.2,18.2-18.2v-37.2c0-10-8.2-18.2-18.2-18.2
				c-10,0-18.2,8.2-18.2,18.2v37.2C578.3,315.5,586.5,323.6,596.5,323.6z M590,268.2c0-3.6,3-6.6,6.6-6.6s6.6,3,6.6,6.6v37.2
				c0,3.6-3,6.6-6.6,6.6s-6.6-3-6.6-6.6V268.2z"/>
		</g>
		<g id="XMLID_20_">
			<g id="XMLID_106_">
				<path id="XMLID_107_" class="st1" d="M242.6,524.7V424.5H224v-27.7h18.6v-6.1c0-17,5.2-30.1,15.7-39.2
					c10.5-9.1,25.4-13.6,44.7-13.6c6.6,0,13.2,0.6,19.7,1.8c6.5,1.2,13.8,2.9,21.9,5.1l-5.4,31.4c-6.8-1.7-12.4-3-17-3.9
					c-4.5-0.9-10.1-1.3-16.8-1.3c-7.3,0-13,1.7-16.9,5.1c-3.9,3.4-5.9,8.3-5.9,14.6v6.1h25.1v27.7h-25.1v100.2H242.6z M362.9,524.7
					h-40.1V396.9h40.1V524.7z"/>
				<path id="XMLID_110_" class="st1" d="M429.2,524.7h-40.1V340.4h40.1V524.7z"/>
				<path id="XMLID_206_" class="st1" d="M510.3,527.2c-19.4,0-34.6-5.9-45.6-17.6c-11-11.7-16.5-26.6-16.5-44.5v-4.5
					c0-19.5,5.2-35.4,15.5-47.7c10.4-12.3,25.3-18.4,45-18.3c17.3,0,30.6,5.2,40.1,15.5c9.5,10.3,14.2,24.5,14.2,42.4v20.9h-73.3
					l-0.2,0.7c0.6,6.7,3.1,12.1,7.4,16.2c4.3,4.1,10.6,6.2,18.7,6.2c7.6,0,14-0.6,19.1-1.9c5.1-1.3,10.9-3.3,17.4-6l9.6,24.3
					c-5.5,4-12.9,7.4-22.2,10.2C530.3,525.8,520.6,527.2,510.3,527.2z M508.8,425.2c-6.4,0-11.1,2-14.1,6.1c-3,4.1-4.8,9.6-5.3,16.5
					l0.2,0.6h34.5v-3.1c0-6.6-1.2-11.6-3.5-15C518.4,426.9,514.4,425.2,508.8,425.2z"/>
				<path id="XMLID_223_" class="st1" d="M646.7,488.8c0-3.2-1.8-6-5.4-8.4c-3.6-2.5-10.1-4.7-19.6-6.7
					c-14.9-2.9-26.1-7.4-33.7-13.5c-7.6-6.1-11.3-14.5-11.3-25.2c0-11.3,4.7-20.8,14.2-28.7c9.5-7.8,22.3-11.8,38.4-11.8
					c17,0,30.6,3.8,40.6,11.4c10.1,7.6,14.9,17.4,14.4,29.5l-0.2,0.7h-38.8c0-5-1.3-8.9-3.8-11.5c-2.5-2.6-6.7-3.9-12.4-3.9
					c-4.2,0-7.7,1.1-10.5,3.4c-2.8,2.3-4.3,5.2-4.3,8.7c0,3.4,1.6,6.3,4.9,8.6c3.3,2.4,9.9,4.5,19.8,6.4
					c15.7,3.1,27.3,7.7,34.7,13.8c7.5,6.1,11.2,14.8,11.2,25.9c0,11.5-5.1,21-15.3,28.4c-10.2,7.4-23.7,11.2-40.5,11.2
					c-17.4,0-31.2-4.4-41.3-13.2c-10.1-8.8-14.9-18.7-14.5-29.5l0.2-0.7H610c0.2,6.1,2,10.4,5.5,13.1c3.5,2.7,8.5,4,14.9,4
					c5.4,0,9.4-1,12.2-3.1C645.3,495.6,646.7,492.7,646.7,488.8z"/>
			</g>
			<g id="XMLID_67_">
				<path id="XMLID_74_" class="st0" d="M206.5,304.7c0-3.2-1.8-6-5.4-8.4c-3.6-2.5-10.1-4.7-19.6-6.7c-14.9-2.9-26.1-7.4-33.7-13.5
					c-7.6-6.1-11.3-14.5-11.3-25.2c0-11.3,4.7-20.8,14.2-28.7c9.5-7.8,22.3-11.8,38.4-11.8c17,0,30.6,3.8,40.6,11.4
					c10.1,7.6,14.9,17.4,14.4,29.5l-0.2,0.7h-38.8c0-5-1.3-8.9-3.8-11.5c-2.5-2.6-6.7-3.9-12.4-3.9c-4.2,0-7.7,1.1-10.5,3.4
					c-2.8,2.3-4.3,5.2-4.3,8.7c0,3.4,1.6,6.3,4.9,8.6c3.3,2.4,9.9,4.5,19.8,6.4c15.7,3.1,27.3,7.7,34.7,13.8
					c7.5,6.1,11.2,14.8,11.2,25.9c0,11.5-5.1,21-15.3,28.4c-10.2,7.4-23.7,11.2-40.5,11.2c-17.4,0-31.2-4.4-41.3-13.2
					c-10.1-8.8-14.9-18.7-14.5-29.5l0.2-0.7h36.2c0.2,6.1,2,10.4,5.5,13.1c3.5,2.7,8.5,4,14.9,4c5.4,0,9.4-1,12.2-3.1
					C205.1,311.5,206.5,308.5,206.5,304.7z"/>
				<path id="XMLID_93_" class="st0" d="M318.4,312.4c5.4,0,9.5-1.5,12.2-4.4c2.7-3,4-7.2,4-12.8h36.4l0.2,0.7
					c0.3,13.9-4.5,25.3-14.5,34.1c-10,8.8-22.7,13.2-38.3,13.2c-19.5,0-34.4-6-45-18c-10.5-12-15.8-27.7-15.8-47v-2.7
					c0-19.2,5.2-34.9,15.7-46.9c10.5-12.1,25.4-18.1,44.8-18.1c16.2,0,29.2,4.5,38.9,13.5c9.7,9,14.4,21.4,14.1,37l-0.2,0.7h-36.4
					c0-6.1-1.4-11-4.1-14.8c-2.8-3.8-6.9-5.7-12.3-5.7c-7.7,0-13.1,3.1-16.1,9.3c-3,6.2-4.5,14.5-4.5,25v2.7
					c0,10.7,1.5,19.1,4.5,25.2C305,309.3,310.5,312.4,318.4,312.4z"/>
				<path id="XMLID_103_" class="st0" d="M429.3,183.1h-40.1v-26.8h40.1V183.1z M429.3,340.6h-40.1V212.8h40.1V340.6z"/>
			</g>
		</g>
	</g>
	<g id="XMLID_68_">
		<g id="XMLID_78_">
			<g id="XMLID_80_">
				<path id="XMLID_91_" class="st0" d="M-191.3,378.7V377c0-9.3-7.6-16.9-16.9-16.9h-53l-6.9-11.2c-0.6-1-1.6-1.5-2.7-1.5h-40
					c-1.8,0-3.2,1.4-3.2,3.2v25c0,0.5-0.1,1-0.1,1.4v1.7v58.2v1.7c0,9.3,7.6,16.9,16.9,16.9h34.4h20.1h34.4
					c9.3,0,16.9-7.6,16.9-16.9v-1.7 M-197.7,438.6c0,5.8-4.7,10.5-10.5,10.5h-89c-5.8,0-10.5-4.7-10.5-10.5V391
					c0-0.2,0.1-0.4,0.1-0.7v-36.6h35l7,11.4c0.8,1.3,2.3,1.8,3.7,1.4h53.8c5.8,0,10.5,4.7,10.5,10.5V438.6z M-191.3,428.4v-41.1"/>
				<path id="XMLID_87_" class="st0" d="M-208.1,373.8h-89c-1.8,0-3.2,1.4-3.2,3.2v61.6c0,1.8,1.4,3.2,3.2,3.2h89
					c1.8,0,3.2-1.4,3.2-3.2V377C-204.9,375.3-206.4,373.8-208.1,373.8z M-211.4,435.4h-82.5v-55.2h82.5V435.4z"/>
				<path id="XMLID_84_" class="st0" d="M-269.7,428.1c5.5,0,10.1-4.5,10.1-10.1v-20.5c0-5.5-4.5-10.1-10.1-10.1
					c-5.5,0-10.1,4.5-10.1,10.1v20.5C-279.8,423.6-275.3,428.1-269.7,428.1z M-273.4,397.6c0-2,1.6-3.6,3.6-3.6s3.6,1.6,3.6,3.6
					v20.5c0,2-1.6,3.6-3.6,3.6s-3.6-1.6-3.6-3.6V397.6z"/>
				<path id="XMLID_81_" class="st0" d="M-235.5,428.1c5.5,0,10.1-4.5,10.1-10.1v-20.5c0-5.5-4.5-10.1-10.1-10.1
					s-10.1,4.5-10.1,10.1v20.5C-245.6,423.6-241.1,428.1-235.5,428.1z M-239.2,397.6c0-2,1.6-3.6,3.6-3.6s3.6,1.6,3.6,3.6v20.5
					c0,2-1.6,3.6-3.6,3.6s-3.6-1.6-3.6-3.6V397.6z"/>
			</g>
		</g>
		<g id="XMLID_75_">
			
				<text id="XMLID_77_" transform="matrix(1 0 0 1 -442.061 539.0859)" class="st1" style="font-family:'Roboto-Black'; font-size:133.5px;">files</text>
			
				<text id="XMLID_76_" transform="matrix(1 0 0 1 -493.7278 437.5136)" class="st0" style="font-family:'Roboto-Black'; font-size:133.5px;">sci</text>
		</g>
	</g>
	<g id="XMLID_136_">
		<g id="XMLID_154_">
			<g id="XMLID_156_">
				<path id="XMLID_179_" class="st0" d="M-197.7,370.9v-1.7c0-9.3-7.6-16.9-16.9-16.9h-53l-6.9-11.2c-0.6-1-1.6-1.5-2.7-1.5h-40
					c-1.8,0-3.2,1.4-3.2,3.2v25c0,0.5-0.1,1-0.1,1.4v1.7v58.2v1.7c0,9.3,7.6,16.9,16.9,16.9h34.4h20.1h34.4
					c9.3,0,16.9-7.6,16.9-16.9v-1.7 M-204.1,430.8c0,5.8-4.7,10.5-10.5,10.5h-89c-5.8,0-10.5-4.7-10.5-10.5v-47.6
					c0-0.2,0.1-0.4,0.1-0.7V346h35l7,11.4c0.8,1.3,2.3,1.8,3.7,1.4h53.8c5.8,0,10.5,4.7,10.5,10.5V430.8z M-197.7,420.6v-41.1"/>
				<path id="XMLID_163_" class="st0" d="M-214.6,366h-89c-1.8,0-3.2,1.4-3.2,3.2v61.6c0,1.8,1.4,3.2,3.2,3.2h89
					c1.8,0,3.2-1.4,3.2-3.2v-61.6C-211.4,367.5-212.8,366-214.6,366z M-217.8,427.6h-82.5v-55.2h82.5V427.6z"/>
				<path id="XMLID_160_" class="st0" d="M-276.1,420.3c5.5,0,10.1-4.5,10.1-10.1v-20.5c0-5.5-4.5-10.1-10.1-10.1
					c-5.5,0-10.1,4.5-10.1,10.1v20.5C-286.2,415.8-281.7,420.3-276.1,420.3z M-279.8,389.8c0-2,1.6-3.6,3.6-3.6c2,0,3.6,1.6,3.6,3.6
					v20.5c0,2-1.6,3.6-3.6,3.6c-2,0-3.6-1.6-3.6-3.6V389.8z"/>
				<path id="XMLID_157_" class="st0" d="M-241.9,420.3c5.5,0,10.1-4.5,10.1-10.1v-20.5c0-5.5-4.5-10.1-10.1-10.1
					c-5.5,0-10.1,4.5-10.1,10.1v20.5C-252,415.8-247.5,420.3-241.9,420.3z M-245.6,389.8c0-2,1.6-3.6,3.6-3.6c2,0,3.6,1.6,3.6,3.6
					v20.5c0,2-1.6,3.6-3.6,3.6c-2,0-3.6-1.6-3.6-3.6V389.8z"/>
			</g>
		</g>
		<g id="XMLID_151_">
			
				<text id="XMLID_153_" transform="matrix(1 0 0 1 -448.4764 531.2782)" class="st1" style="font-family:'Roboto-Black'; font-size:133.5px;">files</text>
			
				<text id="XMLID_152_" transform="matrix(1 0 0 1 -500.1433 429.7059)" class="st0" style="font-family:'Roboto-Black'; font-size:133.5px;">sci</text>
		</g>
	</g>
	<g id="XMLID_1_">
		
			<text id="XMLID_73_" transform="matrix(1 0 0 1 524.9487 1024.3781)" class="st1" style="font-family:'Roboto-Black'; font-size:133.5px;">les</text>
		
			<text id="XMLID_70_" transform="matrix(1 0 0 1 203.6807 1024.3784)" class="st0" style="font-family:'Roboto-Black'; font-size:133.5px;">sci-fi</text>
	</g>
</g>
</svg>
